<mxfile host="app.diagrams.net" modified="2024-06-29T07:05:36.203Z" agent="Mozilla/5.0 (Macintosh; Intel Mac OS X 10_15_7) AppleWebKit/537.36 (KHTML, like Gecko) Chrome/126.0.0.0 Safari/537.36" version="24.4.13" etag="pDv7dx5rFK4XmmckMuxL" type="github">
  <diagram name="Page-1" id="zq8XB-5Qdt5pARgMMZWc">
    <mxGraphModel>
      <root>
        <mxCell id="0" />
        <mxCell id="1" parent="0" />
      </root>
    </mxGraphModel>
  </diagram>
</mxfile>
